<?xml version="1.0" standalone="no"?><!DOCTYPE svg PUBLIC "-//W3C//DTD SVG 1.1//EN" "http://www.w3.org/Graphics/SVG/1.1/DTD/svg11.dtd"><svg t="1711170516437" class="icon" viewBox="0 0 1120 1024" version="1.1" xmlns="http://www.w3.org/2000/svg" p-id="19483" xmlns:xlink="http://www.w3.org/1999/xlink" width="218.75" height="200"><path d="M1081.372587 410.809524c24.821143-14.679773 39.220767-37.483848 39.220767-62.641169s-14.231536-47.961396-39.220767-62.641168l-455.801347-268.942405C588.311511-5.490907 532.281843-5.490907 494.854025 16.528752L39.220767 285.527187c-24.989232 14.679773-39.220767 37.483848-39.220767 62.641168s14.231536 47.961396 39.220767 62.641169l121.920557 72.054152 1.344712 365.98579a118.838925 118.838925 0 0 0 71.213708 108.585496A799.095121 799.095121 0 0 0 554.69371 1023.998207a778.812381 778.812381 0 0 0 343.181715-79.394039 95.250435 95.250435 0 0 0 53.004066-84.044502l2.913542-374.110091zM538.333047 90.207765a53.172155 53.172155 0 0 1 43.92726 0l437.031408 257.736471-437.031408 257.736472a53.172155 53.172155 0 0 1-43.92726 0L233.419596 426.161653a42.750636 42.750636 0 0 0-16.808901-10.029311L101.24561 348.168355z m326.877082 769.455427a8.852687 8.852687 0 0 1-4.818552 8.012242A684.906658 684.906658 0 0 1 554.69371 938.440904a713.593848 713.593848 0 0 1-286.815869-59.447477 33.281623 33.281623 0 0 1-19.666413-30.480139l-1.288682-315.054822 247.931279 146.629641a137.832983 137.832983 0 0 0 130.885304 0l241.992135-142.819623z" p-id="19484"></path><path d="M1076.441976 453.672219a42.750636 42.750636 0 0 0-42.750636 42.750637v370.748311a42.806666 42.806666 0 0 0 85.557302 0V496.422856a42.806666 42.806666 0 0 0-42.806666-42.750637z" p-id="19485"></path></svg>