<?xml version="1.0" standalone="no"?><!DOCTYPE svg PUBLIC "-//W3C//DTD SVG 1.1//EN" "http://www.w3.org/Graphics/SVG/1.1/DTD/svg11.dtd"><svg t="1711170505385" class="icon" viewBox="0 0 1024 1024" version="1.1" xmlns="http://www.w3.org/2000/svg" p-id="18392" xmlns:xlink="http://www.w3.org/1999/xlink" width="200" height="200"><path d="M924.7 349.2c-15.7 0-28.5 12.7-28.3 28.4 0.2 23.8-3.7 47.6-11.6 70.4-4.9 14.2 2 29.8 15.8 35.5 3.5 1.5 7.2 2.1 10.8 2.1 11.7 0 22.6-7.3 26.8-19 10.2-28.9 15.1-59.2 14.8-89.4-0.1-15.5-12.8-28-28.3-28z m7.7-66c0 14.9-12 28.3-28.3 28.3-11.1 0-22.2-6.6-26.7-16.7-7-15.7-16.1-30.7-27.2-44.6-5.1-6.4-30.4-33-39.1-38.4-109.9-68.8-217.8 19.4-253.2 51.5-1.3 1.2-4.8 5.5-4.8 5.5l25.5 25c8.9 8.8 9.1 26.2-0.8 36.4-10.9 11.3-29 13.7-38.5 4.4l-23.8-22.9s-77.2 88.3-87.1 99.5c-0.6 0.7-1.4 1-2.3 1h-65.9v56h124.9V593H541V468h125v-56h-88.5c-7.3 0-13.9-2.9-18.7-7.7-4.9-4.9-7.9-11.7-7.7-19.3 0.3-14.4 12.5-25.8 26.9-25.8h107.4c18.4 0 33.4 15 33.4 33.4v94.8c0 18.4-14.9 33.4-33.4 33.4h-91.5v91.5c0 18.4-15 33.4-33.4 33.4h-94.7c-18.5 0-33.4-15-33.4-33.4v-91.5h-91.5c-18.4 0-33.4-15-33.4-33.4v-94.8c0-18.5 15-33.4 33.4-33.4h56c16.6-19 52.2-59.1 76.8-88.4l-0.3-0.3 0.1-0.1c-1.1-1.1-2.7-2.5-4.7-4.2-34-30.1-182-152-296-16.5-62.5 74.3-60.7 183.9 0 259.3 4.9 6.2 10.3 12.1 16.1 17.8l38.8 38.4 96.6 100.6 55.4 54.9L492 831.9c10.6 11.2 28.4 11.2 39.5 0l112.3-111.1 55.4-54.9 97.3-101.3 42.5-43.3c7.6-7.8 19-10.5 29.3-7.1 19.5 6.5 26 30.8 12.2 46.1-2 2.2-3.9 4.3-5.7 6l-23.3 23.1-54.9 54.4-22.3 22.1-50.4 54.9-152.3 150.6c-32.9 32.5-86.2 32.5-119.1 0L300.3 720.7l-50.4-54.9-22.2-21.9-54.9-54.4-23.5-23.2-2.5-2.5C44.9 460.4 46.7 294.9 149.4 192.3c75.1-75.1 156.6-67.1 201.2-59.3 85.5 15 161.2 93.2 161.2 93.2s72.3-80.5 161.6-94.4c55.7-8.6 140.4-6.2 203.9 63.5 27.2 29.9 40.1 48.7 52.5 76.3 1.8 3.8 2.6 7.8 2.6 11.6z" fill="#1A1A1A" p-id="18393"></path></svg>