<?xml version="1.0" standalone="no"?><!DOCTYPE svg PUBLIC "-//W3C//DTD SVG 1.1//EN" "http://www.w3.org/Graphics/SVG/1.1/DTD/svg11.dtd"><svg t="1711170336084" class="icon" viewBox="0 0 1024 1024" version="1.1" xmlns="http://www.w3.org/2000/svg" p-id="9084" xmlns:xlink="http://www.w3.org/1999/xlink" width="200" height="200"><path d="M289.96 226.696" fill="" p-id="9085"></path><path d="M533.936 571.28a23.6 23.6 0 1 0-43.888 0l-98.312 248.512a30.744 30.744 0 0 0 3.168 28.672 30.784 30.784 0 0 0 25.504 13.496h183.168a30.824 30.824 0 0 0 28.68-42.168L533.936 571.28z" fill="" p-id="9086"></path><path d="M512 452.592m-67.848 0a67.848 67.848 0 1 0 135.696 0 67.848 67.848 0 1 0-135.696 0Z" fill="" p-id="9087"></path><path d="M388.96 550.552c-22.4-28.08-34.232-61.96-34.232-97.968 0-31.824 9.448-62.472 27.32-88.624a24.664 24.664 0 1 0-40.736-27.84 205.552 205.552 0 0 0-35.928 116.464 207.2 207.2 0 0 0 44.992 128.728 24.64 24.64 0 0 0 19.304 9.288 24.664 24.664 0 0 0 19.28-40.048zM682.664 336.08a24.672 24.672 0 1 0-40.728 27.856 156.544 156.544 0 0 1 27.344 88.656c0 35.992-11.832 69.872-34.224 97.96a24.656 24.656 0 0 0 19.272 40.04 24.64 24.64 0 0 0 19.312-9.28 207.28 207.28 0 0 0 44.976-128.712 205.568 205.568 0 0 0-35.952-116.52z" fill="" p-id="9088"></path><path d="M221.344 452.592c0-79.08 31.208-153.032 87.864-208.224a24.656 24.656 0 0 0 0.456-34.88 24.648 24.648 0 0 0-34.88-0.456C208.504 273.584 172 360.08 172 452.592c0 91.6 35.896 177.504 101.072 241.888 4.808 4.752 11.072 7.12 17.336 7.12a24.656 24.656 0 0 0 17.336-42.216c-55.712-55.048-86.4-128.496-86.4-206.792zM749.208 209.032a24.672 24.672 0 0 0-34.424 35.344c56.664 55.192 87.872 129.144 87.872 208.224 0 78.328-30.696 151.76-86.44 206.816a24.648 24.648 0 0 0 17.336 42.208c6.264 0 12.528-2.368 17.336-7.112 65.208-64.384 101.112-150.296 101.112-241.928 0-92.488-36.496-178.992-102.792-243.552z" fill="" p-id="9089"></path></svg>