<?xml version="1.0" standalone="no"?><!DOCTYPE svg PUBLIC "-//W3C//DTD SVG 1.1//EN" "http://www.w3.org/Graphics/SVG/1.1/DTD/svg11.dtd"><svg t="1711170555841" class="icon" viewBox="0 0 1024 1024" version="1.1" xmlns="http://www.w3.org/2000/svg" p-id="21680" xmlns:xlink="http://www.w3.org/1999/xlink" width="200" height="200"><path d="M860.032 495.488c-54.4 54.4-130.304 79.36-201.728 91.136 32.64-45.696 28.544-109.568-12.544-150.528L486.4 276.608c-12.8-12.8-10.624-35.84 4.864-51.328 8.448-8.448 19.072-12.928 29.056-13.184l-10.624-10.624c-0.384-0.384-0.768-0.896-1.152-1.28-11.392-13.056-8.96-34.944 6.144-50.048 14.976-14.976 36.992-17.536 50.048-6.144 0.384 0.384 0.896 0.768 1.28 1.152l10.624 10.624c0.256-9.984 4.864-20.608 13.184-29.056 15.488-15.488 38.528-17.664 51.328-4.864l159.36 159.36c40.96 40.96 104.96 45.184 150.528 12.416-11.648 71.424-36.608 147.456-91.008 201.856z" fill="#55AEFF" p-id="21681"></path><path d="M1010.816 376.576c16.64-62.336 17.152-128.128 1.28-190.08 0-0.128-0.128-0.256-0.128-0.384v-0.128-0.128l-0.384-1.152c0-0.128-0.128-0.256-0.128-0.384-0.128-0.384-0.384-0.768-0.64-1.152 0-0.128-0.128-0.256-0.256-0.256-0.128-0.256-0.384-0.512-0.512-0.896-0.128-0.256-0.256-0.384-0.512-0.512l-0.384-0.384-0.384-0.384c-4.864-4.864-12.928-4.864-17.792 0-2.048 2.048-3.328 4.736-3.584 7.552-0.128 0.896-0.128 1.664 0 2.56 2.048 26.624-6.016 52.608-22.784 73.216-2.304 2.944-4.864 5.76-7.552 8.448-4.096 4.096-8.448 7.808-13.184 11.136-41.6 29.824-98.048 25.088-134.4-11.136l-49.536-49.536L811.52 202.24c3.456-1.408 6.016-4.096 7.168-7.68l30.976-90.88c1.536-4.48 0.384-9.6-3.072-12.928-3.328-3.328-8.448-4.608-12.928-3.072l-90.88 30.848c-3.456 1.152-6.272 3.84-7.68 7.168l-20.736 51.584L660.48 123.392c-20.352-20.352-53.632-20.48-73.984 0-4.224 4.224-7.68 9.216-10.24 14.592-20.736-17.152-51.2-15.872-70.4 3.328s-20.48 49.792-3.328 70.4c-5.376 2.56-10.24 6.016-14.592 10.24-20.48 20.48-20.48 53.632 0 73.984l52.608 52.608L57.088 831.872c-0.64 0.384-1.408 0.896-1.92 1.408l-18.176 18.176c-3.2 3.2-3.712 8.192-1.408 11.904-1.152 1.28-1.92 2.688-2.304 4.224l-15.232 5.76c-6.272 2.432-11.264 7.296-13.824 13.568l-1.28 3.2c-5.12 12.8-2.304 26.88 7.424 36.736l0.128 0.128c9.728 9.728 23.808 12.672 36.608 7.552l3.2-1.28c6.4-2.56 11.392-7.68 13.824-13.952l5.248-13.952c2.176-0.256 4.224-1.152 5.888-2.688l0.256-0.256c3.328 1.152 7.296 0.384 9.984-2.304l16.384-16.384c0.768-0.512 1.408-1.024 2.048-1.664l485.12-485.12 48 48c36.224 36.224 40.96 92.672 11.136 134.4-3.328 4.608-7.04 9.088-11.136 13.184-2.688 2.688-5.504 5.248-8.448 7.552-20.608 16.64-46.72 24.704-73.216 22.656h-1.024c-6.912 0-12.544 5.632-12.544 12.544 0 3.456 1.408 6.656 3.712 8.96 0.384 0.384 0.768 0.64 1.152 1.024l0.128 0.128c0.256 0.256 0.64 0.384 0.896 0.64 0.256 0.128 0.384 0.256 0.64 0.384 0.256 0.128 0.512 0.256 0.896 0.384 0.256 0.128 0.512 0.256 0.896 0.384 0.256 0.128 0.512 0.128 0.768 0.256 0.128 0 0.256 0.128 0.384 0.128 61.952 15.872 127.744 15.488 190.08-1.28 64.256-17.152 123.264-51.328 170.752-98.816 47.232-47.616 81.408-106.624 98.688-170.88zM756.48 140.544l61.184-20.864-20.864 61.184-56.064 22.656-6.784-6.784 22.528-56.192zM81.024 877.056l-2.432 2.432-21.12-21.12 2.432-2.432 21.12 21.12z m-37.888 38.272l-3.2 1.28c-5.632 2.176-11.52 1.024-15.744-3.328-4.224-4.352-5.504-10.24-3.2-15.744l1.28-3.2c0.512-1.28 1.536-2.176 2.688-2.688l13.952-5.248L51.2 898.56l-5.248 13.824c-0.512 1.408-1.536 2.432-2.816 2.944z m51.712-60.032l-12.8-12.8 476.288-476.288 12.8 12.8L94.848 855.296z m528.64-222.08c7.296-3.84 14.208-8.448 20.736-13.696 3.584-2.944 7.168-6.016 10.496-9.344 5.12-5.12 9.728-10.496 13.824-16.256 36.992-51.712 31.104-121.856-13.824-166.784l-56.832-56.832-0.128-0.128-0.128-0.128-30.464-30.464-0.128-0.128-0.128-0.128-61.312-61.312c-10.624-10.624-10.624-27.904 0-38.4 5.504-5.504 13.184-8.448 20.992-7.936 5.248 0.384 10.112-2.56 12.288-7.424 2.176-4.736 1.152-10.368-2.56-14.08l-12.928-12.928-1.024-1.024c-9.6-10.752-9.216-27.136 1.024-37.376s26.624-10.624 37.376-1.024c0.384 0.256 0.64 0.64 1.024 1.024l12.928 12.928c3.712 3.712 9.344 4.736 14.08 2.56 4.736-2.176 7.68-7.04 7.424-12.288-0.512-7.808 2.432-15.488 7.936-20.992 10.624-10.624 27.776-10.624 38.4 0l148.992 148.992c45.056 45.056 115.2 50.816 166.784 13.824 5.76-4.096 11.264-8.704 16.256-13.824 3.328-3.328 6.528-6.912 9.344-10.496 5.248-6.528 9.856-13.44 13.696-20.736 5.504 99.072-31.616 198.4-103.68 270.592-71.936 72.32-171.392 109.44-270.464 103.808z" fill="#002C5B" p-id="21682"></path></svg>