<?xml version="1.0" standalone="no"?><!DOCTYPE svg PUBLIC "-//W3C//DTD SVG 1.1//EN" "http://www.w3.org/Graphics/SVG/1.1/DTD/svg11.dtd"><svg t="1711162106723" class="icon" viewBox="0 0 1024 1024" version="1.1" xmlns="http://www.w3.org/2000/svg" p-id="7701" data-spm-anchor-id="a313x.search_index.0.i0.48b53a81Z2J7sg" xmlns:xlink="http://www.w3.org/1999/xlink" width="200" height="200"><path d="M227.643077 811.323077c-7.876923 0-14.178462-5.513846-15.753846-13.390769-3.938462-29.144615-6.301538-59.076923-6.301539-89.009231 0-267.815385 179.593846-507.273846 436.381539-582.104615 8.664615-2.363077 17.329231 2.363077 19.692307 11.027692 2.363077 8.664615-2.363077 17.329231-11.027692 19.692308-243.396923 70.892308-413.538462 297.747692-413.538461 552.172307 0 28.356923 2.363077 56.713846 6.301538 84.283077 1.575385 8.664615-4.726154 16.541538-13.390769 18.116923-0.787692-0.787692-1.575385-0.787692-2.363077-0.787692z" fill="#808080" p-id="7702"></path><path d="M708.923077 387.544615m-59.076923 0a59.076923 59.076923 0 1 0 118.153846 0 59.076923 59.076923 0 1 0-118.153846 0Z" fill="#BFBFBF" p-id="7703"></path><path d="M863.310769 706.56c-1.575385 0-3.938462 0-5.513846-0.787692-237.883077-87.433846-396.996923-316.652308-396.996923-569.501539v-18.904615c0-8.664615 7.876923-15.753846 16.541538-14.966154 8.664615 0 15.753846 7.876923 14.966154 16.541538v17.329231c0 240.246154 151.236923 456.861538 376.516923 539.569231 7.876923 3.150769 12.603077 11.815385 9.452308 20.48-3.150769 6.301538-8.664615 10.24-14.966154 10.24z" fill="#808080" p-id="7704"></path><path d="M637.243077 687.655385c-194.56 0-382.030769-70.104615-527.753846-197.71077-6.301538-5.513846-7.089231-15.753846-1.575385-22.055384 5.513846-6.301538 15.753846-7.089231 22.055385-1.575385 140.209231 122.88 320.590769 189.833846 507.273846 189.833846 84.283077 0 166.203077-13.390769 245.76-40.172307 7.876923-3.150769 17.329231 1.575385 19.692308 10.24 3.150769 7.876923-1.575385 17.329231-10.24 19.692307-81.92 27.569231-167.778462 41.747692-255.212308 41.747693z" fill="#808080" p-id="7705"></path><path d="M512 937.353846c-234.732308 0-425.353846-190.621538-425.353846-425.353846s190.621538-425.353846 425.353846-425.353846 425.353846 190.621538 425.353846 425.353846-190.621538 425.353846-425.353846 425.353846z m0-787.692308c-200.073846 0-362.338462 162.264615-362.338462 362.338462s162.264615 362.338462 362.338462 362.338462 362.338462-162.264615 362.338462-362.338462-162.264615-362.338462-362.338462-362.338462z" fill="#7F7F7F" p-id="7706"></path><path d="M352.098462 335.556923m-59.076924 0a59.076923 59.076923 0 1 0 118.153847 0 59.076923 59.076923 0 1 0-118.153847 0Z" fill="#BFBFBF" p-id="7707"></path><path d="M515.150769 671.901538m-59.076923 0a59.076923 59.076923 0 1 0 118.153846 0 59.076923 59.076923 0 1 0-118.153846 0Z" fill="#BFBFBF" p-id="7708"></path></svg>