<?xml version="1.0" standalone="no"?><!DOCTYPE svg PUBLIC "-//W3C//DTD SVG 1.1//EN" "http://www.w3.org/Graphics/SVG/1.1/DTD/svg11.dtd"><svg t="1711170477178" class="icon" viewBox="0 0 1243 1024" version="1.1" xmlns="http://www.w3.org/2000/svg" p-id="15202" xmlns:xlink="http://www.w3.org/1999/xlink" width="242.7734375" height="200"><path d="M979.308512 0.076066c86.670943-1.974781 158.567598 67.544823 160.542379 155.276296 1.938211 87.731473-66.776853 160.432669-153.484365 162.40745-86.670943 1.974781-158.567598-67.508253-160.542379-155.239726v-3.547292C824.800186 72.228711 893.51525 1.136596 979.271942 0.149206V0.039496zM0 452.447188c72.042935-2.413621 144.159011-4.717532 216.201946-6.911733l31.303936 34.448957 285.611841 228.452903a38.398519 38.398519 0 0 1-8.484245 40.59272l-101.042959 66.740282a69.519604 69.519604 0 0 1-63.266132-9.215644 194135.963327 194135.963327 0 0 1-347.707731-287.513482C0 508.435886 1.755361 469.013407 0 452.447188z m324.01036-348.877971c-38.105959 0.29256-20.22322 33.498137-1.462801 48.894114 91.059345 75.882787 182.11869 151.655865 273.287744 227.319232l-142.11109 103.456581c-24.538482 17.736459-3.474152 68.129944 14.957138 82.977371l545.478389 441.582967h216.128806c-6.399753-26.074423-3.474152-60.45024-25.160172-77.638148-154.398616-123.606661-308.650952-247.213322-462.830148-370.819983 50.686045-40.30016 101.29895-80.60032 151.729004-120.900479a44.834842 44.834842 0 0 0-5.522072-60.45024c-110.441454-92.851276-220.809769-185.409991-331.068373-277.712717-77.638148 0.91425-155.422577 1.974781-233.462995 3.291302z" fill="#38BFD4" p-id="15203"></path></svg>